<?xml version="1.0" encoding="utf-8"?>
<!-- Generator: Adobe Illustrator 19.0.0, SVG Export Plug-In . SVG Version: 6.00 Build 0)  -->
<svg version="1.1" id="Layer_1" xmlns="http://www.w3.org/2000/svg" x="0px" y="0px"
	 viewBox="0 0 500 500" style="enable-background:new 0 0 500 500;" xml:space="preserve">
<style type="text/css">
	.st0{fill:#2A7BBB;}
	.st1{fill:#82B1D7;}
	.st2{fill:#C0D8EB;}
	.st3{fill:#FFFFFF;}
	.st4{fill:#EB7805;}
	.st5{fill:#D0F0C3;}
	.st6{fill:#C6ECB7;}
	.st7{fill:#BFEAAD;}
	.st8{fill:#D20A0F;}
	.st9{fill:#C20500;}
	.st10{fill:#FAB900;}
	.st11{fill:#E65700;}
	.st12{fill:#B8E8A5;}
	.st13{fill:#B3E69F;}
</style>
<g id="XMLID_83_">
	<path id="XMLID_85_" class="st0" d="M117.5,212.6c7.3-4.2,15.8-6.7,24.8-6.7c-7.3-4.2-15.7-6.5-24.7-6.5c-9.2,0-17.8,2.5-25.2,6.8
		c0.1,0,0.3,0,0.4,0C101.8,206.1,110.2,208.5,117.5,212.6z"/>
	<path id="XMLID_86_" class="st1" d="M136,230.9c7.3-4.2,15.8-6.6,24.8-6.6c-4.4-7.6-10.9-14-18.5-18.4c-9,0-17.5,2.5-24.8,6.7
		C125.1,217,131.5,223.3,136,230.9z"/>
	<path id="XMLID_87_" class="st1" d="M74.3,224.3l0.2,0c9,0,17.5,2.4,24.8,6.6c4.4-7.5,10.7-13.8,18.2-18.2
		c-7.3-4.1-15.7-6.5-24.7-6.5c-0.1,0-0.3,0-0.4,0C84.9,210.5,78.6,216.8,74.3,224.3z"/>
	<path id="XMLID_88_" class="st2" d="M117.7,249.1c4.4-7.5,10.7-13.8,18.3-18.2c-4.5-7.6-10.9-13.9-18.5-18.3
		c-7.5,4.4-13.8,10.7-18.2,18.2C106.9,235.2,113.3,241.5,117.7,249.1z"/>
	<path id="XMLID_89_" class="st2" d="M92.5,256c0-9.2,2.5-17.7,6.7-25.1c-7.3-4.2-15.8-6.6-24.8-6.6l-0.2,0
		c-4.3,7.4-6.8,16-6.8,25.2c9.1,0,17.7,2.4,25,6.7L92.5,256z"/>
	<path id="XMLID_90_" class="st3" d="M92.5,256.1c7.6,4.4,14,10.8,18.4,18.4l0-0.2c0-9.2,2.5-17.8,6.8-25.2
		c-4.4-7.6-10.8-13.9-18.4-18.3c-4.3,7.4-6.7,16-6.7,25.1L92.5,256.1z"/>
	<path id="XMLID_91_" class="st3" d="M74.4,274.6c9.1,0,17.6,2.4,25,6.7c-4.3-7.4-6.8-16-6.9-25.2c-7.4-4.3-15.9-6.7-25-6.7
		c0,9.2,2.5,17.8,6.8,25.2L74.4,274.6z"/>
	<path id="XMLID_92_" class="st4" d="M117,298.4c-3.9-7.1-6.1-15.2-6.1-23.9c-4.4-7.6-10.7-14-18.4-18.4c0,9.2,2.5,17.8,6.9,25.2
		C106.6,285.4,112.7,291.3,117,298.4"/>
	<polyline id="XMLID_93_" class="st5" points="117.6,299.5 117.6,299.7 117.6,299.7 117.6,299.5 	"/>
	<polyline id="XMLID_94_" class="st6" points="117.6,299.3 117.6,299.5 117.6,299.3 117.6,299.3 	"/>
	<polyline id="XMLID_95_" class="st7" points="117.6,299.3 117.6,299.3 117.6,299.3 117.6,299.3 117.6,299.3 	"/>
	<path id="XMLID_96_" class="st8" d="M99.4,281.3c-7.3-4.2-15.9-6.7-25-6.7l-0.1,0c8.7,14.9,24.8,24.9,43.3,24.9l0-0.2
		C110.1,295,103.8,288.8,99.4,281.3"/>
	<path id="XMLID_97_" class="st9" d="M117.6,299.3L117.6,299.3c-0.2-0.3-0.4-0.6-0.5-1c-4.4-7.1-10.4-12.9-17.6-17.1
		C103.8,288.8,110.1,295,117.6,299.3"/>
	<path id="XMLID_98_" class="st2" d="M167.6,249.4c0-9.2-2.5-17.8-6.8-25.2c-9,0-17.5,2.4-24.8,6.6c4.3,7.4,6.8,15.9,6.9,25.1
		C150.2,251.8,158.6,249.4,167.6,249.4z"/>
	<path id="XMLID_99_" class="st3" d="M117.7,249.1c4.3,7.3,6.8,15.9,6.8,25c4.4-7.5,10.8-13.8,18.4-18.1c0-9.1-2.5-17.7-6.9-25.1
		C128.4,235.3,122.1,241.6,117.7,249.1z"/>
	<path id="XMLID_100_" class="st10" d="M117.6,299.3c0-9.2,2.6-17.8,6.9-25.2c0-9.1-2.5-17.6-6.8-25c-4.3,7.4-6.8,16-6.8,25.2l0,0.2
		C115.1,281.8,117.5,290.2,117.6,299.3L117.6,299.3"/>
	<path id="XMLID_101_" class="st11" d="M117.6,299.3c0-9-2.5-17.5-6.7-24.8c0,8.7,2.3,16.8,6.1,23.9
		C117.2,298.7,117.4,299,117.6,299.3"/>
	<polyline id="XMLID_102_" class="st12" points="117.6,299.3 117.6,299.3 117.6,299.3 117.6,299.3 117.6,299.3 	"/>
	<path id="XMLID_103_" class="st13" d="M117,298.4c0.2,0.3,0.4,0.6,0.5,1l0-0.1C117.4,299,117.2,298.7,117,298.4"/>
	<polyline id="XMLID_104_" class="st6" points="117.7,299.5 117.6,299.5 117.6,299.7 117.7,299.5 117.7,299.5 	"/>
	<polyline id="XMLID_105_" class="st7" points="117.6,299.3 117.6,299.3 117.6,299.5 117.7,299.5 117.6,299.3 117.6,299.3 	"/>
	<polyline id="XMLID_106_" class="st12" points="117.6,299.3 117.6,299.3 117.6,299.3 117.6,299.3 117.6,299.3 	"/>
	<path id="XMLID_107_" class="st3" d="M142.9,256.2c0,9.1-2.4,17.6-6.7,25c7.3-4.1,15.7-6.5,24.6-6.5c4.3-7.4,6.8-16,6.8-25.2
		c-9,0-17.5,2.4-24.8,6.5L142.9,256.2z"/>
	<path id="XMLID_108_" class="st4" d="M118.4,298.4c4.4-7.1,10.6-13.1,17.9-17.2c4.2-7.3,6.7-15.9,6.7-25l0-0.2
		c-7.6,4.3-13.9,10.6-18.4,18.1l0,0.3C124.5,283,122.3,291.2,118.4,298.4"/>
	<polyline id="XMLID_109_" class="st7" points="117.6,299.4 117.7,299.5 117.7,299.4 117.6,299.4 	"/>
	<path id="XMLID_110_" class="st11" d="M117.6,299.4L117.6,299.4c0.3-0.3,0.5-0.6,0.7-1c3.9-7.1,6.1-15.3,6.1-24.1l0-0.3
		c-4.4,7.4-6.9,16-6.9,25.2L117.6,299.4"/>
	<polyline id="XMLID_111_" class="st7" points="117.7,299.5 117.7,299.5 117.7,299.5 117.7,299.5 	"/>
	<polyline id="XMLID_112_" class="st12" points="117.6,299.3 117.7,299.5 117.7,299.5 117.7,299.5 117.6,299.4 117.6,299.3 	"/>
	<polyline id="XMLID_113_" class="st13" points="117.6,299.3 117.6,299.3 117.6,299.3 117.6,299.3 117.6,299.4 117.6,299.3 	"/>
	<polyline id="XMLID_114_" class="st5" points="117.6,299.7 117.6,299.7 117.6,299.8 117.6,299.8 117.6,299.7 	"/>
	<polyline id="XMLID_115_" class="st6" points="117.6,299.7 117.6,299.7 117.6,299.7 117.6,299.7 117.6,299.7 117.6,299.7 	"/>
	<path id="XMLID_116_" class="st6" d="M117.6,299.7L117.6,299.7c-0.2,0.3-0.4,0.6-0.5,0.9C117.2,300.3,117.4,300.1,117.6,299.7
		L117.6,299.7"/>
	<polyline id="XMLID_117_" class="st7" points="117.6,299.7 117.5,299.7 117.6,299.7 117.6,299.7 	"/>
	<polyline id="XMLID_118_" class="st6" points="117.7,299.5 117.6,299.7 117.7,299.6 117.7,299.5 	"/>
	<polyline id="XMLID_119_" class="st6" points="117.6,299.7 117.6,299.7 117.6,299.8 117.6,299.7 	"/>
	<polyline id="XMLID_120_" class="st7" points="117.7,299.5 117.7,299.5 117.6,299.7 117.6,299.7 117.6,299.7 117.7,299.5 
		117.7,299.5 	"/>
	<path id="XMLID_121_" class="st8" d="M118,299.5c18.3-0.1,34.2-10.1,42.9-24.9c-9,0-17.4,2.4-24.6,6.5
		C131.8,288.7,125.5,295.1,118,299.5"/>
	<polyline id="XMLID_122_" class="st6" points="117.8,299.5 117.7,299.5 117.7,299.5 117.8,299.6 117.9,299.5 117.8,299.5 	"/>
	<polyline id="XMLID_123_" class="st7" points="117.8,299.4 117.7,299.5 117.8,299.5 117.8,299.4 	"/>
	<polyline id="XMLID_124_" class="st7" points="118,299.5 117.8,299.5 117.9,299.5 118,299.5 	"/>
	<path id="XMLID_125_" class="st9" d="M118.4,298.4c-0.2,0.4-0.4,0.7-0.6,1.1l0.1,0.1l0.1,0c7.6-4.4,13.9-10.7,18.2-18.3
		C128.9,285.3,122.8,291.2,118.4,298.4"/>
	<polyline id="XMLID_126_" class="st7" points="117.7,299.5 117.7,299.5 117.7,299.5 117.7,299.5 	"/>
	<polyline id="XMLID_127_" class="st12" points="117.7,299.4 117.7,299.4 117.7,299.5 117.7,299.5 117.7,299.5 117.8,299.4 
		117.7,299.4 	"/>
	<path id="XMLID_128_" class="st13" d="M118.4,298.4c-0.2,0.3-0.4,0.7-0.6,1l0,0C118,299.1,118.2,298.7,118.4,298.4"/>
	<path id="XMLID_129_" class="st6" d="M117.8,299.6L117.8,299.6L117.8,299.6c0.2,0.4,0.4,0.7,0.6,1
		C118.2,300.3,118,299.9,117.8,299.6"/>
	<polyline id="XMLID_130_" class="st7" points="117.7,299.5 117.7,299.5 117.7,299.5 117.7,299.6 117.8,299.6 117.7,299.5 	"/>
	<polyline id="XMLID_131_" class="st12" points="117.7,299.5 117.7,299.5 117.7,299.5 117.7,299.5 117.7,299.5 117.7,299.5 
		117.7,299.5 	"/>
	<polyline id="XMLID_132_" class="st13" points="117.7,299.5 117.7,299.5 117.7,299.5 117.7,299.5 117.7,299.5 	"/>
	<path id="XMLID_135_" class="st8" d="M312.2,261.1c0,1.6,0.6,3,1.4,4.2c2.8,4.5,6.9,6.8,12.1,6.9c5.3,0.2,10.2-1.3,14.5-4.4
		c0.1-0.1,0.2-0.1,0.4-0.2c1.4,2.2,2.7,4.4,4.1,6.7c-1.7,1.5-3.5,2.7-5.4,3.6c-8.2,3.8-16.5,4.2-24.8,0.4
		c-5.5-2.5-9.2-6.8-10.9-12.6c-2.1-7.2-1.7-14.2,2.3-20.7c3.6-6,9.1-9.2,16.1-10c3.5-0.4,7-0.1,10.4,1c7,2.3,10.9,7.3,12.5,14.3
		c0.7,3.2,0.9,6.5,0.6,9.8c-0.1,0.8-0.4,0.9-1.1,0.9c-10.3,0-20.6,0-30.9,0C313,261.1,312.6,261.1,312.2,261.1z M335.8,253.5
		c-0.5-3.1-1.8-5.7-4.4-7.5c-2.8-1.9-6-2.1-9.2-1.7c-3,0.4-5.5,1.7-7.4,4c-1.2,1.5-2,3.2-2.3,5.1C320.3,253.5,328,253.5,335.8,253.5
		z"/>
	<path id="XMLID_139_" class="st8" d="M265.4,267.7c1.4,2.3,2.7,4.5,4.1,6.7c-0.3,0.2-0.5,0.5-0.8,0.7c-9.3,6.6-19.2,7.9-29.6,3.3
		c-6.7-3-10.4-8.5-11.6-15.7c-0.9-5.7-0.4-11.2,2.3-16.3c3.6-6.7,9.2-10.3,16.7-11.2c3.8-0.4,7.5-0.1,11.1,1.1
		c6.5,2.3,10.2,7.1,11.8,13.7c0.8,3.3,0.8,6.7,0.7,10c0,0.2,0,0.4-0.1,0.5c0,0.1-0.1,0.3-0.1,0.5c-11,0-21.9,0-33.1,0
		c0.3,1,0.4,1.9,0.8,2.7c2.5,5.4,6.9,8.2,12.9,8.5C256,272.5,260.9,271,265.4,267.7z M260.5,253.5c0-3-2.3-6.5-5.1-8
		c-2.5-1.3-5.1-1.4-7.8-1.2c-4.9,0.4-8.9,3.7-10.1,8.3c-0.1,0.3-0.1,0.6-0.2,0.9C245.1,253.5,252.8,253.5,260.5,253.5z"/>
	<path id="XMLID_145_" class="st8" d="M349.8,258c0-5.8,1.5-11.2,5.5-15.6c3.5-3.9,8-6.1,13.1-7c7.4-1.3,14.1,0.2,20.1,4.8
		c4.7,3.7,7.1,8.7,7.8,14.5c0.5,4.1,0.2,8.2-1.3,12.1c-2.7,7-7.9,11.2-15,13.1c-8.1,2.2-15.7,0.8-22.4-4.4
		c-4.6-3.6-6.9-8.5-7.6-14.2c-0.1-0.6-0.1-1.1-0.2-1.7C349.7,259.2,349.8,258.6,349.8,258z M386.1,257.4c-0.1-0.9-0.3-2.4-0.7-3.8
		c-1.3-4.6-4.2-7.9-9-9.1c-4.7-1.1-9.1-0.3-12.5,3.4c-3.7,4-4.5,8.9-3.2,14.1c2.8,11.2,14.5,11.8,20,7.6
		C384.5,266.7,385.9,262.7,386.1,257.4z"/>
	<path id="XMLID_146_" class="st8" d="M187.6,227.4c0-3.1,0-6.1,0-9.2c16.3,0,32.5,0,48.8,0c0.8,4.9-1.7,8.2-5.4,9
		c-0.7,0.1-1.3,0.2-2,0.2c-3.5,0-7,0-10.5,0c-0.3,0-0.7,0-1.1,0c0,17.8,0,35.4,0,53.1c-3.5,0-6.9,0-10.4,0c0-0.4-0.1-0.8-0.1-1.2
		c0-16.9,0-33.7,0-50.6c0-1.3,0-1.3-1.3-1.3c-5.6,0-11.2,0-16.9,0C188.3,227.4,188,227.4,187.6,227.4z"/>
	<path id="XMLID_147_" class="st8" d="M402.6,268.3c3,1.7,6,3,9.3,3.7c2.6,0.5,5.2,0.6,7.8-0.3c2.1-0.8,3.1-2.1,3.1-3.9
		c0-1.2-0.6-2.2-1.5-3c-1.9-1.6-4.2-2.2-6.4-3.1c-3.1-1.2-6.2-2.4-9.2-3.8c-2.2-1-4-2.7-5.2-4.9c-2.2-4.3-1.7-12.2,5.5-15.9
		c3.3-1.7,6.9-2.3,10.6-2.1c4.8,0.2,9.3,1.8,13.2,4.5c0.3,0.2,0.7,0.5,1,0.8c-1.3,2.2-2.5,4.4-3.7,6.7c-1-0.5-2-1.1-3-1.6
		c-3.7-1.8-7.6-2.6-11.7-1.5c-1.7,0.4-3.2,1.3-3.5,3.3c-0.2,1.4,0.3,2.6,1.4,3.4c1.4,1,2.8,1.9,4.3,2.5c2.3,1,4.8,1.7,7.2,2.8
		c2.1,1,4.3,2,6.2,3.4c6.3,4.9,6.2,13.4-0.2,18.2c-3.9,2.9-8.4,3.9-13.2,3.6c-5.7-0.3-10.8-2.3-15.7-5.2c-0.2-0.1-0.3-0.2-0.6-0.4
		C399.6,273.1,401.1,270.8,402.6,268.3z"/>
	<path id="XMLID_148_" class="st8" d="M286.2,280.5c-3.3,0-6.6,0-9.9,0c0-15,0-29.9,0-44.8c3.5-0.4,7.3-0.6,9.8,5.4
		c4.1-5.7,11.4-7,17.6-5c-0.9,2.8-1.8,5.6-2.8,8.5c-1-0.1-1.9-0.3-2.8-0.4c-5.9-0.9-11.1,3.1-11.8,9c-0.1,0.8-0.1,1.7-0.2,2.6
		c0,7.9,0,15.8,0,23.7C286.2,279.7,286.2,280.1,286.2,280.5z"/>
</g>
</svg>
