<svg xmlns="http://www.w3.org/2000/svg" viewBox="0 0 1278.1 307.6"><path d="M319.3 221.3c-13.2 0-20.1-6-22.2-17.4-.4-2.1-.6-4.5-.6-7v-56.3l-31.7 9.9V198c0 33.1 17.3 51.3 48.9 51.3 3 0 5.8-.2 8.7-.6l13-28.8c-4.8.9-9 1.5-16 1.5M328 95.4h-31.6V57.5h-31.7v77l63.3-19.8zM37.8 249.8h31.7v-38l-31.7 10zm0-44.1 31.7-10V113H37.8ZM202 181c0 25.7-11 38-34.8 38.9-23.7-.8-34.8-13.2-34.8-38.9V113h-32.1v68.6c0 22.7 7.2 41 21 53.2a64 64 0 0 0 43.1 15h5.5a64 64 0 0 0 43.2-15c13.7-12.2 20.9-30.5 20.9-53.2V113h-32Z" style="fill:#f3704f;fill-opacity:1;fill-rule:nonzero;stroke:none"/><path d="M994.3 123.3c-2.2 4.8-7.5 8.2-15 8.2-10.2 0-16.7-5.6-18-16.5h46.3c.2-1.6.3-3.3.3-5 0-18.2-10.4-30.5-28.7-30.5-18 0-30.1 12.3-30.1 30.5 0 19.8 12 31.5 30.4 31.5 13.8 0 25-7.5 27.5-18.3zm-15.6-33.4c10 0 17 6.7 17 15.5h-34.5C962.7 96 969 90 978.7 90zm5.7 76.4h-12v68.1c0 9.5 5.7 15.2 15.4 15.2h12v-10.9h-15.4zm-38.6 23.9h12v59.5h-12zm72.4-23.9h-12v68.1c0 9.5 5.6 15.2 15.4 15.2h11.9v-10.9h-15.3zm-66.4-1a7 7 0 0 0-7.4 6.6v.7c0 4 3 7.4 7 7.5h.4c4.1 0 7.4-3.3 7.4-7.4.1-4-3.3-7.5-7.4-7.5zm114.8 23.7c-18 0-30.1 12.2-30.1 30.4 0 19.8 11.9 31.5 30.4 31.5 13.8 0 24.9-7.5 27.5-18.3h-12.6c-2.2 4.8-7.5 8.2-15 8.2-10.2 0-16.7-5.6-18-16.5h46.3c.2-1.6.3-3.3.3-4.9 0-18.2-10.4-30.4-28.8-30.4zm-17.9 25.6c1.5-9.5 7.6-15.5 17.5-15.5 10 0 17 6.7 17 15.5zm191.6-104.4c0-18.2-10.5-30.4-28.9-30.4-18 0-30 12.2-30 30.4 0 19.8 11.9 31.5 30.4 31.5 13.7 0 24.9-7.5 27.5-18.3h-12.6c-2.2 4.8-7.5 8.2-15 8.2-10.3 0-16.7-5.6-18.1-16.5h46.4c.2-1.6.3-3.2.3-4.9zm-46.7-4.8c1.5-9.5 7.6-15.5 17.5-15.5s17 6.7 17 15.5zm-36.6-43h-12V125c0 9 6.6 15.3 15.5 15.3h15v-10.6H1157V91.7h18.5V81h-18.4V62.4Zm-255.2 104h-12.7v83.2h48.2v-10.9h-35.5zm216.7-85.5h12v59.5h-12zm6-25a7 7 0 0 0-7.4 6.7v.7c0 4 3 7.4 7 7.5h.4c4.1 0 7.4-3.3 7.4-7.4 0-4-3.3-7.4-7.4-7.5zm-34.4 49.8-13.6-2.3c-4.7-.7-7.2-3-7.2-6.8 0-4.8 5-7.4 11.8-7.4 8 0 12.5 3.5 13 9.5h11.6c-.6-12.3-9.1-19.2-24.6-19.2-14.8 0-22.8 7.2-22.8 17.5 0 10 6.1 15.1 16.3 16.8l12.6 2c5.7 1 8 4.8 8 8.2 0 4.7-5 7.6-13.2 7.6-9 0-13-4.5-13.8-9.2h-11.9c.7 11.7 10.6 19.2 25.6 19.2 15.3 0 24.7-6.6 24.7-18.3 0-10.2-5.7-15.8-16.5-17.6zm-166.7 34.7L946 81h-12.8L916 130.4 898.6 81h-12.8l22.6 59.5zm-150.1-32.1c0 14.3-6.2 21.8-20.1 21.8-13.9 0-20.3-7.5-20.3-21.8V57.2H720v51c0 22.5 12.2 33.5 33 33.5 21 0 33-11.1 33-33.5v-51h-12.8Zm454.6-51.1h-14l-8 17.2h10.8zm-196.2 34.5h21V81h-17.3a15 15 0 0 0-15.5 14.6v45h11.9zM769 198.5c-4.3-5.5-12-9.5-21-9.5-16.8 0-29.2 12.7-29.2 31 0 18.5 12 30.8 29 30.8 9.6 0 17-3 21.3-9.5v8.2h12v-83.3h-12v32.3zm-18.6 42c-12.2 0-19.1-9-19.1-20.3 0-11.2 7-20.2 19-20.2 11.4 0 19.3 9 19.3 20.2s-7.6 20.2-19.2 20.2zM866.2 80.8h12v59.5h-12ZM831 79.8c-8 0-15 3-19.4 8.4v-7.3h-12v59.5h12l.1-34.2c0-9.8 5.7-15.9 15-15.9 9 0 13.8 5.5 13.8 16v34.1h11.9v-36.7c-.1-14.4-7.4-24-21.4-24ZM821.8 189c-18 0-30 12.2-30 30.4 0 19.8 11.8 31.5 30.4 31.5 13.6 0 24.8-7.5 27.5-18.3H837c-2.1 4.8-7.5 8.2-15 8.2-10.2 0-16.7-5.6-18-16.5h46.3c.3-1.6.4-3.3.4-4.9 0-18.2-10.5-30.4-28.9-30.4zM804 214.6c1.5-9.5 7.6-15.5 17.5-15.5s17 6.7 17 15.5zM872.3 56a7 7 0 0 0-7.4 6.7v.7c-.1 4 3 7.4 7 7.5h.4c4 0 7.4-3.3 7.4-7.4 0-4-3.3-7.4-7.4-7.5zM575 166.6V57.2H553v110.3c0 23.8 14 37.6 38.5 37.6h55.3l9.6-21.6h-63.9c-11.2 0-17.3-5.5-17.3-17zm46.7-26V57.1h-21.3v98.1c-.1 3 2.3 5.5 5.1 5.5H666.7l9.1-20.4zM527.5 169V57h-23.1v114.5c0 48.8 28.3 78.3 73.1 78.3h48.8l9.9-22h-52c-36.9-.2-56.7-19-56.7-58.8z" style="fill:#1a1717;fill-opacity:1;fill-rule:nonzero;stroke:none"/><path d="M415 37.8h3.3v232.1H415z" style="fill:#1a1717;fill-opacity:1;stroke:none"/></svg>